# xmcd CD database file
#
# Track frame offsets:
#	150
#	3029
#	11707
#	43254
#	63252
#	121355
#	155693
#	162523
#	202404
#	267439
#
# Disc length: 4246 seconds
#
# Revision: 0
# Processed by: cddbd v1.5.2PL0 Copyright (c) Steve Scherf et al.
# Submitted via: CDex 1.70beta3
#
DISCID=8c10940a
DTITLE=Nude Jazz - Cynodontia
DYEAR=2005
DGENRE=Jazz
TTITLE0=First Born - 誕生
TTITLE1=The Triassic - 三畳期
TTITLE2=The Mammal-like Reptiles - 哺乳類的爬虫類
TTITLE3=Synapse - シナプス
TTITLE4=The Ice Age - 氷河期
TTITLE5=Short of Oxygen - 酸素欠乏
TTITLE6=Stratagem for Existence - 生存戦略
TTITLE7=Regeneration - 復興
TTITLE8=Wrath of Cynodon - キノドンの怒り
TTITLE9=Data Track
EXTD=YEAR: 2005
EXTT0=
EXTT1=
EXTT2=
EXTT3=
EXTT4=
EXTT5=
EXTT6=
EXTT7=
EXTT8=
EXTT9=
PLAYORDER=
